<svg width="32" height="32" viewBox="0 0 32 32" fill="none" xmlns="http://www.w3.org/2000/svg">
  <!-- Background circle -->
  <circle cx="16" cy="16" r="16" fill="#1a1a1a"/>
  
  <!-- Lock icon -->
  <path d="M12 12C12 9.79086 13.7909 8 16 8C18.2091 8 20 9.79086 20 12V14H21C21.5523 14 22 14.4477 22 15V23C22 23.5523 21.5523 24 21 24H11C10.4477 24 10 23.5523 10 23V15C10 14.4477 10.4477 14 11 14H12V12Z" 
        fill="#3b82f6" 
        stroke="#60a5fa" 
        stroke-width="1"/>
  
  <!-- Key icon (smaller, positioned at top-right) -->
  <path d="M24 8C24 6.89543 23.1046 6 22 6C20.8954 6 20 6.89543 20 8C20 9.10457 20.8954 10 22 10C23.1046 10 24 9.10457 24 8Z" 
        fill="#8b5cf6"/>
  <path d="M22 8L20 10L18 8L20 6L22 8Z" 
        fill="#8b5cf6"/>
  
  <!-- Lock hole -->
  <circle cx="16" cy="17" r="2" fill="#1a1a1a"/>
</svg>